<svg width="275" height="301" viewBox="0 0 275 301" fill="none" xmlns="http://www.w3.org/2000/svg">
<path d="M171.742 0.368744C181.925 0.368744 190.179 8.6235 190.179 18.8062V195.438C190.179 205.62 181.925 213.875 171.742 213.875V0.368744Z" fill="black"/>
<path d="M201.242 0.368744C211.425 0.368744 219.679 8.6235 219.679 18.8062V195.438C219.679 205.62 211.425 213.875 201.242 213.875V0.368744Z" fill="black"/>
<path d="M171.926 0C180.745 5.09138 183.766 16.3676 178.675 25.1861L79.7051 196.607C74.6137 205.425 63.3375 208.447 54.519 203.355L171.926 0Z" fill="black"/>
<path d="M55.1134 294.913H43.5134L40.3134 285.073H21.1934L18.0734 294.913H6.47344L24.7134 242.753C25.5134 240.939 26.3934 239.686 27.3534 238.993C28.3668 238.299 29.5934 237.953 31.0334 237.953C32.4734 237.953 33.6201 238.273 34.4734 238.913C35.3801 239.553 36.1801 240.833 36.8734 242.753L55.1134 294.913ZM37.7534 275.713L31.0334 253.153L23.9934 275.713H37.7534ZM86.3691 249.393L83.4891 259.633C82.6891 259.313 81.7824 259.153 80.7691 259.153C78.1024 259.153 74.8224 260.299 70.9291 262.593V294.913H60.5291V249.233H68.2891L70.6891 253.233L81.7291 248.673C82.2624 248.619 82.9824 248.593 83.8891 248.593C84.7957 248.593 85.6224 248.859 86.3691 249.393ZM112.821 294.913H106.341C102.394 294.913 99.3809 293.739 97.3009 291.393C95.2743 289.046 94.2609 286.246 94.2609 282.993V258.993H89.8609V251.073H94.2609V242.113H104.661V251.073H112.021V258.993H104.661V282.353C104.661 284.859 105.861 286.113 108.261 286.113H112.821V294.913ZM126.706 231.793C129.213 231.793 130.839 232.193 131.586 232.993C132.333 233.739 132.706 235.366 132.706 237.873C132.706 240.326 132.306 241.953 131.506 242.753C130.759 243.499 129.133 243.873 126.626 243.873C124.173 243.873 122.546 243.473 121.746 242.673C120.999 241.873 120.626 240.246 120.626 237.793C120.626 235.339 120.999 233.739 121.746 232.993C122.546 232.193 124.199 231.793 126.706 231.793ZM131.826 294.913H121.426V250.913H131.826V294.913ZM174.817 282.273V283.473C174.497 287.473 172.791 290.486 169.697 292.513C166.657 294.539 162.844 295.553 158.257 295.553C151.484 295.553 146.737 294.326 144.017 291.873C141.511 289.633 140.257 286.326 140.257 281.953V280.993H149.697C149.697 283.446 150.337 285.126 151.617 286.033C152.897 286.939 155.111 287.393 158.257 287.393C162.524 287.393 164.657 285.846 164.657 282.753C164.657 280.193 163.911 278.486 162.417 277.633C161.724 277.206 160.844 276.886 159.777 276.673L151.697 275.313C144.657 274.193 141.137 269.793 141.137 262.113C141.137 257.846 142.684 254.539 145.777 252.193C148.924 249.793 152.897 248.593 157.697 248.593C168.631 248.593 174.097 253.313 174.097 262.753V263.793H165.057C164.951 261.286 164.284 259.579 163.057 258.673C161.831 257.766 160.097 257.313 157.857 257.313C155.671 257.313 154.017 257.766 152.897 258.673C151.777 259.526 151.217 260.486 151.217 261.553C151.217 264.593 152.444 266.326 154.897 266.753L164.577 268.513C171.404 269.793 174.817 274.379 174.817 282.273ZM213.135 272.833H223.455C223.455 280.086 221.642 285.659 218.015 289.553C214.389 293.446 209.269 295.393 202.655 295.393C188.095 295.393 180.815 286.833 180.815 269.713V264.913C180.815 251.419 184.549 242.966 192.015 239.553C194.949 238.166 198.495 237.473 202.655 237.473C208.735 237.473 213.669 239.153 217.455 242.513C221.295 245.819 223.215 250.619 223.215 256.913H212.815C212.229 253.766 211.189 251.393 209.695 249.793C208.202 248.193 205.855 247.393 202.655 247.393C198.922 247.393 196.149 248.566 194.335 250.913C193.055 252.566 192.309 255.393 192.095 259.393C191.989 260.673 191.935 262.406 191.935 264.593V269.553C191.935 275.686 192.789 279.873 194.495 282.113C196.255 284.353 198.975 285.473 202.655 285.473C206.389 285.473 208.949 284.459 210.335 282.433C211.775 280.353 212.709 277.153 213.135 272.833ZM256.849 274.273V270.113C256.849 266.166 256.262 263.153 255.089 261.073C253.969 258.993 251.596 257.953 247.969 257.953C242.102 257.953 239.169 261.899 239.169 269.793V273.953C239.169 282.433 242.102 286.673 247.969 286.673C251.756 286.673 254.236 285.259 255.409 282.433C256.369 280.193 256.849 277.473 256.849 274.273ZM267.249 271.873C267.249 281.739 265.382 288.353 261.649 291.713C258.502 294.593 253.942 296.033 247.969 296.033C240.342 296.033 235.196 293.793 232.529 289.313C230.022 285.206 228.769 279.393 228.769 271.873C228.769 264.833 230.022 259.313 232.529 255.313C235.302 250.833 240.342 248.593 247.649 248.593C255.009 248.593 260.102 250.566 262.929 254.513C265.809 258.406 267.249 264.193 267.249 271.873Z" fill="black"/>
</svg>
