<svg width="343" height="375" viewBox="0 0 343 375" fill="none" xmlns="http://www.w3.org/2000/svg">
<rect x="214.209" y="0.45993" width="22.9966" height="266.301" rx="4" fill="white"/>
<path d="M251.003 2.1634C251.003 1.2226 251.766 0.45993 252.707 0.45993V0.45993C264.467 0.45993 274 9.9932 274 21.7531V262.761C274 264.97 272.209 266.761 270 266.761H255.003C252.794 266.761 251.003 264.97 251.003 262.761V2.1634Z" fill="white"/>
<path d="M212.439 3.4641C213.543 1.55093 215.99 0.895431 217.903 2L230.89 9.4983C232.803 10.6029 233.459 13.0492 232.354 14.9624L88.7674 263.662C88.297 264.477 87.2552 264.756 86.4404 264.286V264.286C76.2561 258.406 72.7666 245.383 78.6466 235.199L212.439 3.4641Z" fill="white"/>
<path d="M89.1134 361H77.5134L74.3134 351.16H55.1934L52.0734 361H40.4734L58.7134 308.84C59.5134 307.027 60.3934 305.773 61.3534 305.08C62.3668 304.387 63.5934 304.04 65.0334 304.04C66.4734 304.04 67.6201 304.36 68.4734 305C69.3801 305.64 70.1801 306.92 70.8734 308.84L89.1134 361ZM71.7534 341.8L65.0334 319.24L57.9934 341.8H71.7534ZM120.369 315.48L117.489 325.72C116.689 325.4 115.782 325.24 114.769 325.24C112.102 325.24 108.822 326.387 104.929 328.68V361H94.5291V315.32H102.289L104.689 319.32L115.729 314.76C116.262 314.707 116.982 314.68 117.889 314.68C118.796 314.68 119.622 314.947 120.369 315.48ZM146.821 361H140.341C136.394 361 133.381 359.827 131.301 357.48C129.274 355.133 128.261 352.333 128.261 349.08V325.08H123.861V317.16H128.261V308.2H138.661V317.16H146.021V325.08H138.661V348.44C138.661 350.947 139.861 352.2 142.261 352.2H146.821V361ZM160.706 297.88C163.213 297.88 164.839 298.28 165.586 299.08C166.333 299.827 166.706 301.453 166.706 303.96C166.706 306.413 166.306 308.04 165.506 308.84C164.759 309.587 163.133 309.96 160.626 309.96C158.173 309.96 156.546 309.56 155.746 308.76C154.999 307.96 154.626 306.333 154.626 303.88C154.626 301.427 154.999 299.827 155.746 299.08C156.546 298.28 158.199 297.88 160.706 297.88ZM165.826 361H155.426V317H165.826V361ZM208.817 348.36V349.56C208.497 353.56 206.791 356.573 203.697 358.6C200.657 360.627 196.844 361.64 192.257 361.64C185.484 361.64 180.737 360.413 178.017 357.96C175.511 355.72 174.257 352.413 174.257 348.04V347.08H183.697C183.697 349.533 184.337 351.213 185.617 352.12C186.897 353.027 189.111 353.48 192.257 353.48C196.524 353.48 198.657 351.933 198.657 348.84C198.657 346.28 197.911 344.573 196.417 343.72C195.724 343.293 194.844 342.973 193.777 342.76L185.697 341.4C178.657 340.28 175.137 335.88 175.137 328.2C175.137 323.933 176.684 320.627 179.777 318.28C182.924 315.88 186.897 314.68 191.697 314.68C202.631 314.68 208.097 319.4 208.097 328.84V329.88H199.057C198.951 327.373 198.284 325.667 197.057 324.76C195.831 323.853 194.097 323.4 191.857 323.4C189.671 323.4 188.017 323.853 186.897 324.76C185.777 325.613 185.217 326.573 185.217 327.64C185.217 330.68 186.444 332.413 188.897 332.84L198.577 334.6C205.404 335.88 208.817 340.467 208.817 348.36ZM247.135 338.92H257.455C257.455 346.173 255.642 351.747 252.015 355.64C248.389 359.533 243.269 361.48 236.655 361.48C222.095 361.48 214.815 352.92 214.815 335.8V331C214.815 317.507 218.549 309.053 226.015 305.64C228.949 304.253 232.495 303.56 236.655 303.56C242.735 303.56 247.669 305.24 251.455 308.6C255.295 311.907 257.215 316.707 257.215 323H246.815C246.229 319.853 245.189 317.48 243.695 315.88C242.202 314.28 239.855 313.48 236.655 313.48C232.922 313.48 230.149 314.653 228.335 317C227.055 318.653 226.309 321.48 226.095 325.48C225.989 326.76 225.935 328.493 225.935 330.68V335.64C225.935 341.773 226.789 345.96 228.495 348.2C230.255 350.44 232.975 351.56 236.655 351.56C240.389 351.56 242.949 350.547 244.335 348.52C245.775 346.44 246.709 343.24 247.135 338.92ZM290.849 340.36V336.2C290.849 332.253 290.262 329.24 289.089 327.16C287.969 325.08 285.596 324.04 281.969 324.04C276.102 324.04 273.169 327.987 273.169 335.88V340.04C273.169 348.52 276.102 352.76 281.969 352.76C285.756 352.76 288.236 351.347 289.409 348.52C290.369 346.28 290.849 343.56 290.849 340.36ZM301.249 337.96C301.249 347.827 299.382 354.44 295.649 357.8C292.502 360.68 287.942 362.12 281.969 362.12C274.342 362.12 269.196 359.88 266.529 355.4C264.022 351.293 262.769 345.48 262.769 337.96C262.769 330.92 264.022 325.4 266.529 321.4C269.302 316.92 274.342 314.68 281.649 314.68C289.009 314.68 294.102 316.653 296.929 320.6C299.809 324.493 301.249 330.28 301.249 337.96Z" fill="white"/>
</svg>
